<?xml version="1.0" encoding="utf-8"?><svg viewBox="0 0 201 753" xmlns="http://www.w3.org/2000/svg" xmlns:xlink="http://www.w3.org/1999/xlink"><style>:root>svg{display:none}:root>svg:target{display:block}</style><svg viewBox="0 0 5 11" id="arrow-btn" xmlns="http://www.w3.org/2000/svg"><path d="M5 5.833l-5 4.925V.909l5 4.924z"/></svg><svg viewBox="0 0 10 10" id="arrow-input" xmlns="http://www.w3.org/2000/svg"><path d="M7.607 4.357L4.255.91 5.139 0 10 5l-4.861 5-.884-.909 3.353-3.448H0V4.357h7.607z"/></svg><svg viewBox="0 0 13 15" id="basket" xmlns="http://www.w3.org/2000/svg"><path d="M2.528 0h7.944a.7.7 0 01.323.08.73.73 0 01.255.22L13 3v11.25c0 .199-.076.39-.211.53a.709.709 0 01-.511.22H.722a.709.709 0 01-.51-.22.765.765 0 01-.212-.53V3L1.95.3a.73.73 0 01.255-.22.7.7 0 01.323-.08zm8.666 3l-1.083-1.5H2.89L1.806 3h9.388zm-6.86 3H2.888v1.5c0 .995.38 1.948 1.058 2.652A3.545 3.545 0 006.5 11.25c.958 0 1.876-.395 2.553-1.098A3.825 3.825 0 0010.111 7.5V6H8.667v1.5c0 .597-.229 1.169-.635 1.591A2.127 2.127 0 016.5 9.75a2.127 2.127 0 01-1.532-.659A2.295 2.295 0 014.333 7.5V6z"/></svg><svg viewBox="0 0 21 21" id="colurs-1" xmlns="http://www.w3.org/2000/svg"><circle cx="10.5" cy="10.5" r="10.5"/></svg><svg viewBox="0 0 23 21" id="colurs-2" xmlns="http://www.w3.org/2000/svg"><ellipse cx="11.652" cy="10.5" rx="10.957" ry="10.5"/></svg><svg viewBox="0 0 23 21" id="colurs-3" xmlns="http://www.w3.org/2000/svg"><ellipse cx="11.348" cy="10.5" rx="10.957" ry="10.5"/></svg><svg viewBox="0 0 21 21" id="colurs-4" xmlns="http://www.w3.org/2000/svg"><circle cx="10.5" cy="10.5" r="10.5"/></svg><svg viewBox="0 0 10 19" id="facebook" xmlns="http://www.w3.org/2000/svg"><path d="M9.835 0H7.153a4.452 4.452 0 00-3.161 1.32 4.527 4.527 0 00-1.31 3.188v2.704H0v3.606h2.682v7.213H6.26v-7.213h2.68l.894-3.606H6.259V4.508c0-.24.094-.469.261-.638a.89.89 0 01.633-.264h2.682V0z"/></svg><svg viewBox="0 0 80 28" id="footer-logo" xmlns="http://www.w3.org/2000/svg"><path d="M80 0L21.473 24.921C16.62 26.974 12.545 28 9.247 28c-3.739 0-6.447-1.307-8.123-3.92C.067 22.404-.245 20.273.19 17.686c.434-2.586 1.584-5.34 3.448-8.26C5.198 7.06 7.752 3.95 11.3.093a20.41 20.41 0 00-2.613 6.16c-.934 3.982-.096 6.907 2.514 8.774 1.244.872 2.955 1.307 5.133 1.307a23.863 23.863 0 005.88-.839L80 0z"/></svg><svg viewBox="0 0 16 15" id="heart" xmlns="http://www.w3.org/2000/svg"><path d="M8 1.24a4.75 4.75 0 016.594.186 4.92 4.92 0 01.189 6.683L7.999 15 1.217 8.109a4.921 4.921 0 01.189-6.683A4.751 4.751 0 018 1.24z"/></svg><svg viewBox="0 0 18 18" id="instagram" xmlns="http://www.w3.org/2000/svg"><path d="M13.205.839H5.02A4.093 4.093 0 00.927 4.93v8.185A4.092 4.092 0 005.02 17.21h8.185a4.092 4.092 0 004.092-4.093V4.931A4.092 4.092 0 0013.205.84z"/><path d="M12.386 8.508a3.274 3.274 0 11-6.477.96 3.274 3.274 0 016.477-.96zM13.614 4.522h.008"/></svg><svg viewBox="0 0 80 28" id="logo" xmlns="http://www.w3.org/2000/svg"><path d="M80 0L21.473 24.921C16.62 26.974 12.545 28 9.247 28c-3.739 0-6.447-1.307-8.123-3.92C.067 22.404-.245 20.273.19 17.686c.434-2.586 1.584-5.34 3.448-8.26C5.198 7.06 7.752 3.95 11.3.093a20.41 20.41 0 00-2.613 6.16c-.934 3.982-.096 6.907 2.514 8.774 1.244.872 2.955 1.307 5.133 1.307a23.863 23.863 0 005.88-.839L80 0z"/></svg><svg viewBox="0 0 11 15" id="mouse" xmlns="http://www.w3.org/2000/svg"><path d="M4.91.5h1.18c1.385 0 2.128.195 2.8.56a3.783 3.783 0 011.56 1.588c.359.685.55 1.44.55 2.85v4.003c0 1.41-.191 2.166-.55 2.85a3.783 3.783 0 01-1.56 1.588c-.672.366-1.415.561-2.8.561H4.91c-1.385 0-2.127-.195-2.8-.56a3.783 3.783 0 01-1.56-1.589c-.359-.685-.55-1.44-.55-2.85V5.497c0-1.41.191-2.166.55-2.85A3.783 3.783 0 012.11 1.06C2.783.695 3.526.5 4.91.5zm-.098 2.8v3.5h1.375V3.3H4.813z"/></svg><svg viewBox="0 0 201 753" id="sbnike-text" xmlns="http://www.w3.org/2000/svg"><mask id="na" maskUnits="userSpaceOnUse" x="0" y=".13" width="201" height="753"><path d="M0 .13h201v753H0z"/><path d="M199.72 707.216c0 14.72-4.14 25.852-12.42 33.396-8.464 7.544-20.516 11.316-36.156 11.316h-11.04v-28.704h13.248c12.512 0 18.768-5.244 18.768-15.732 0-5.152-1.472-9.016-4.416-11.592-3.128-2.76-8.096-4.14-14.904-4.14-8.096 0-15.18 1.84-21.252 5.52-6.256 3.68-13.708 10.488-22.356 20.424-11.04 12.512-20.976 21.252-29.808 26.22-9.016 4.968-19.136 7.452-30.36 7.452-15.272 0-27.048-3.864-35.328-11.592C5.232 732.056 1 720.832 1 706.112c0-14.536 4.232-25.484 12.696-32.844 8.28-7.544 20.24-11.316 35.88-11.316h8.004v28.704h-9.936c-6.624 0-11.408 1.288-14.352 3.864-3.128 2.576-4.692 6.348-4.692 11.316 0 10.12 6.164 15.18 18.492 15.18 6.992 0 13.524-1.84 19.596-5.52 6.072-3.864 13.432-10.764 22.08-20.7 11.04-12.696 21.068-21.436 30.084-26.22 9.016-4.784 19.596-7.176 31.74-7.176 15.824 0 27.968 3.956 36.432 11.868 8.464 7.728 12.696 19.044 12.696 33.948zM3.76 643.993v-45.816c0-15.64 3.68-27.048 11.04-34.224 7.176-7.176 18.308-10.764 33.396-10.764h7.728c9.936 0 18.032 1.656 24.288 4.968 6.256 3.128 10.764 8.004 13.524 14.628h.552c5.152-15.088 18.584-22.632 40.296-22.632h16.56c14.904 0 26.312 3.956 34.224 11.868 7.728 7.728 11.592 19.136 11.592 34.224v47.748H3.76zm78.66-42.228c0-6.072-1.564-10.58-4.692-13.524-3.128-3.128-8.372-4.692-15.732-4.692H51.232c-6.992 0-12.052 1.288-15.18 3.864-3.128 2.392-4.692 6.256-4.692 11.592v14.628h51.06v-11.868zm86.94-5.52c0-5.336-1.38-9.292-4.14-11.868-2.944-2.576-7.912-3.864-14.904-3.864H133.48c-8.832 0-14.904 1.564-18.216 4.692-3.496 2.944-5.244 7.912-5.244 14.904v13.524h59.34v-17.388zM3.76 488.204v-38.088l115.644-29.532v-.552H3.76v-27.048h193.2v31.188L55.924 460.604v.552H196.96v27.048H3.76zm110.952-145.662L3.76 379.25v-32.292l70.932-20.7v-.552l-70.932-20.7v-29.532l110.952 36.708h82.248v30.36h-82.248zm83.352-72.018c0 5.52-.368 10.212-1.104 14.076h-27.6c.736-2.944 1.104-6.256 1.104-9.936 0-6.072-1.472-10.58-4.416-13.524-3.128-2.944-7.82-4.416-14.076-4.416H3.76v-30.36h147.384c15.824 0 27.6 3.68 35.328 11.04 7.728 7.176 11.592 18.216 11.592 33.12zM3.76 181.736v-41.124l193.2-31.464v30.36l-38.364 5.52h.552v34.5l37.812 5.52V213.2L3.76 181.736zm129.168-33.12L37.432 162.14v.552l95.496 13.248v-27.324zM3.76 94.418v-30.36h78.66V31.49H3.76V1.13h193.2v30.36h-86.94v32.568h86.94v30.36H3.76z"/></mask><path d="M199.72 707.216c0 14.72-4.14 25.852-12.42 33.396-8.464 7.544-20.516 11.316-36.156 11.316h-11.04v-28.704h13.248c12.512 0 18.768-5.244 18.768-15.732 0-5.152-1.472-9.016-4.416-11.592-3.128-2.76-8.096-4.14-14.904-4.14-8.096 0-15.18 1.84-21.252 5.52-6.256 3.68-13.708 10.488-22.356 20.424-11.04 12.512-20.976 21.252-29.808 26.22-9.016 4.968-19.136 7.452-30.36 7.452-15.272 0-27.048-3.864-35.328-11.592C5.232 732.056 1 720.832 1 706.112c0-14.536 4.232-25.484 12.696-32.844 8.28-7.544 20.24-11.316 35.88-11.316h8.004v28.704h-9.936c-6.624 0-11.408 1.288-14.352 3.864-3.128 2.576-4.692 6.348-4.692 11.316 0 10.12 6.164 15.18 18.492 15.18 6.992 0 13.524-1.84 19.596-5.52 6.072-3.864 13.432-10.764 22.08-20.7 11.04-12.696 21.068-21.436 30.084-26.22 9.016-4.784 19.596-7.176 31.74-7.176 15.824 0 27.968 3.956 36.432 11.868 8.464 7.728 12.696 19.044 12.696 33.948zM3.76 643.993v-45.816c0-15.64 3.68-27.048 11.04-34.224 7.176-7.176 18.308-10.764 33.396-10.764h7.728c9.936 0 18.032 1.656 24.288 4.968 6.256 3.128 10.764 8.004 13.524 14.628h.552c5.152-15.088 18.584-22.632 40.296-22.632h16.56c14.904 0 26.312 3.956 34.224 11.868 7.728 7.728 11.592 19.136 11.592 34.224v47.748H3.76zm78.66-42.228c0-6.072-1.564-10.58-4.692-13.524-3.128-3.128-8.372-4.692-15.732-4.692H51.232c-6.992 0-12.052 1.288-15.18 3.864-3.128 2.392-4.692 6.256-4.692 11.592v14.628h51.06v-11.868zm86.94-5.52c0-5.336-1.38-9.292-4.14-11.868-2.944-2.576-7.912-3.864-14.904-3.864H133.48c-8.832 0-14.904 1.564-18.216 4.692-3.496 2.944-5.244 7.912-5.244 14.904v13.524h59.34v-17.388zM3.76 488.204v-38.088l115.644-29.532v-.552H3.76v-27.048h193.2v31.188L55.924 460.604v.552H196.96v27.048H3.76zm110.952-145.662L3.76 379.25v-32.292l70.932-20.7v-.552l-70.932-20.7v-29.532l110.952 36.708h82.248v30.36h-82.248zm83.352-72.018c0 5.52-.368 10.212-1.104 14.076h-27.6c.736-2.944 1.104-6.256 1.104-9.936 0-6.072-1.472-10.58-4.416-13.524-3.128-2.944-7.82-4.416-14.076-4.416H3.76v-30.36h147.384c15.824 0 27.6 3.68 35.328 11.04 7.728 7.176 11.592 18.216 11.592 33.12zM3.76 181.736v-41.124l193.2-31.464v30.36l-38.364 5.52h.552v34.5l37.812 5.52V213.2L3.76 181.736zm129.168-33.12L37.432 162.14v.552l95.496 13.248v-27.324zM3.76 94.418v-30.36h78.66V31.49H3.76V1.13h193.2v30.36h-86.94v32.568h86.94v30.36H3.76z" mask="url(#na)"/></svg><svg viewBox="0 0 15 15" id="search" xmlns="http://www.w3.org/2000/svg"><path d="M11.837 10.793L15 13.955 13.955 15l-3.162-3.163a6.616 6.616 0 01-4.147 1.454A6.648 6.648 0 010 6.646 6.648 6.648 0 016.646 0a6.648 6.648 0 016.645 6.646 6.616 6.616 0 01-1.454 4.147zm-1.48-.548a5.152 5.152 0 001.458-3.6 5.167 5.167 0 00-5.17-5.168 5.167 5.167 0 00-5.168 5.169 5.167 5.167 0 005.169 5.169 5.152 5.152 0 003.6-1.459l.11-.11z"/></svg><svg viewBox="0 0 21 18" id="twitter" xmlns="http://www.w3.org/2000/svg"><path d="M20.602.848a9.661 9.661 0 01-2.808 1.397 3.993 3.993 0 00-2.05-1.284 3.925 3.925 0 00-2.4.147 4.02 4.02 0 00-1.886 1.525 4.156 4.156 0 00-.691 2.353v.913a9.363 9.363 0 01-4.532-1.036A9.593 9.593 0 012.72 1.761S-.856 9.983 7.19 13.637a10.246 10.246 0 01-6.258 1.827c8.047 4.567 17.881 0 17.881-10.505 0-.255-.024-.509-.071-.759a7.093 7.093 0 001.86-3.352z"/></svg><svg viewBox="0 0 23 17" id="youtube" xmlns="http://www.w3.org/2000/svg"><path d="M21.303 3.007a2.675 2.675 0 00-1.867-1.925C17.78.677 11.157.677 11.157.677s-6.622 0-8.278.443A2.676 2.676 0 001.01 3.045a27.916 27.916 0 00-.44 5.092c-.011 1.72.137 3.438.442 5.131a2.676 2.676 0 001.868 1.848c1.656.443 8.278.443 8.278.443s6.623 0 8.279-.443a2.676 2.676 0 001.867-1.925c.3-1.668.45-3.359.443-5.054.01-1.72-.137-3.437-.443-5.13z"/><path d="M8.992 11.285l5.534-3.148L8.992 4.99v6.295z"/></svg></svg>